<svg width="56" height="56" viewBox="0 0 56 56" fill="none" xmlns="http://www.w3.org/2000/svg">
<rect x="0.5" y="0.5" width="55" height="55" rx="7.5" fill="#1A1A1A"/>
<rect x="0.5" y="0.5" width="55" height="55" rx="7.5" stroke="#262626"/>
<path d="M23.5502 37.75C32.6045 37.75 37.5583 30.2467 37.5583 23.7419C37.5583 23.5309 37.5536 23.3153 37.5442 23.1044C38.5079 22.4075 39.3395 21.5443 40 20.5553C39.1025 20.9546 38.1496 21.2154 37.1739 21.3287C38.2013 20.7129 38.9705 19.7455 39.3391 18.6058C38.3726 19.1786 37.3156 19.5826 36.2134 19.8006C35.4708 19.0116 34.489 18.4891 33.4197 18.3141C32.3504 18.139 31.2532 18.3211 30.2977 18.8321C29.3423 19.3431 28.5818 20.1547 28.1338 21.1413C27.6859 22.1279 27.5754 23.2346 27.8195 24.2903C25.8625 24.1921 23.9479 23.6837 22.2 22.7981C20.452 21.9125 18.9097 20.6694 17.673 19.1495C17.0444 20.2332 16.8521 21.5156 17.135 22.7361C17.418 23.9565 18.1551 25.0234 19.1964 25.72C18.4146 25.6952 17.65 25.4847 16.9656 25.1059V25.1669C16.9649 26.3041 17.3581 27.4066 18.0783 28.2868C18.7985 29.167 19.8013 29.7706 20.9162 29.995C20.1921 30.1931 19.432 30.222 18.6948 30.0794C19.0095 31.0574 19.6216 31.9129 20.4458 32.5263C21.27 33.1398 22.2651 33.4806 23.2923 33.5012C21.5484 34.8711 19.3942 35.6141 17.1766 35.6106C16.7833 35.61 16.3904 35.5859 16 35.5384C18.2529 36.9837 20.8735 37.7514 23.5502 37.75Z" fill="white"/>
</svg>
