<svg width="17" height="16" viewBox="0 0 17 16" fill="none" xmlns="http://www.w3.org/2000/svg">
<path d="M7.69749 0.788736C7.85761 0.403755 8.40298 0.403755 8.5631 0.788736L10.3347 5.04828C10.4022 5.21058 10.5549 5.32147 10.7301 5.33552L15.3286 5.70418C15.7443 5.7375 15.9128 6.25618 15.5961 6.52743L12.0925 9.52864C11.959 9.64299 11.9007 9.82242 11.9415 9.9934L13.0119 14.4808C13.1087 14.8864 12.6674 15.2069 12.3116 14.9896L8.37463 12.5849C8.22462 12.4933 8.03596 12.4933 7.88595 12.5849L3.94896 14.9896C3.59314 15.2069 3.15192 14.8864 3.24867 14.4808L4.31908 9.9934C4.35986 9.82242 4.30156 9.64299 4.16807 9.52864L0.664465 6.52743C0.347807 6.25618 0.516335 5.7375 0.931954 5.70418L5.53049 5.33552C5.70571 5.32147 5.85834 5.21058 5.92584 5.04828L7.69749 0.788736Z" stroke="#999999" stroke-linecap="round" stroke-linejoin="round"/>
</svg>
