<svg width="20" height="18" viewBox="0 0 20 18" fill="none" xmlns="http://www.w3.org/2000/svg">
<path d="M3.31641 1.65724C3.6935 1.55472 4.09029 1.5 4.49986 1.5H14.9999C15.4094 1.5 15.8062 1.55472 16.1833 1.65724C15.6906 0.674537 14.674 0 13.4999 0H5.99986C4.8257 0 3.8091 0.674537 3.31641 1.65724Z" fill="#999999"/>
<path d="M0 9C0 7.34315 1.34315 6 3 6H16.5C18.1569 6 19.5 7.34315 19.5 9V15C19.5 16.6569 18.1569 18 16.5 18H3C1.34315 18 0 16.6569 0 15V9Z" fill="#999999"/>
<path d="M2.99986 4.5C2.59029 4.5 2.1935 4.55472 1.81641 4.65724C2.3091 3.67454 3.3257 3 4.49986 3H14.9999C16.174 3 17.1906 3.67454 17.6833 4.65724C17.3062 4.55472 16.9094 4.5 16.4999 4.5H2.99986Z" fill="#999999"/>
</svg>
