<svg width="22" height="17" viewBox="0 0 22 17" fill="none" xmlns="http://www.w3.org/2000/svg">
<path d="M10.7666 11.25C12.4235 11.25 13.7666 9.90685 13.7666 8.25C13.7666 6.59315 12.4235 5.25 10.7666 5.25C9.10975 5.25 7.7666 6.59315 7.7666 8.25C7.7666 9.90685 9.10975 11.25 10.7666 11.25Z" fill="#999999"/>
<path fill-rule="evenodd" clip-rule="evenodd" d="M0.0900125 7.6967C1.57727 3.22571 5.79451 0 10.7671 0C15.7374 0 19.9531 3.22271 21.4421 7.69045C21.5625 8.05152 21.5626 8.44217 21.4425 8.80331C19.9552 13.2743 15.738 16.5 10.7654 16.5C5.79507 16.5 1.57944 13.2773 0.0903401 8.80955C-0.0300014 8.44849 -0.0301159 8.05783 0.0900125 7.6967ZM16.0166 8.25C16.0166 11.1495 13.6661 13.5 10.7666 13.5C7.86711 13.5 5.5166 11.1495 5.5166 8.25C5.5166 5.3505 7.86711 3 10.7666 3C13.6661 3 16.0166 5.3505 16.0166 8.25Z" fill="#999999"/>
</svg>
