<svg width="15" height="15" viewBox="0 0 15 15" fill="none" xmlns="http://www.w3.org/2000/svg">
<path d="M0.5 2.375C0.5 1.33947 1.33947 0.5 2.375 0.5H4.25C5.28553 0.5 6.125 1.33947 6.125 2.375V4.25C6.125 5.28553 5.28553 6.125 4.25 6.125H2.375C1.33947 6.125 0.5 5.28553 0.5 4.25V2.375Z" stroke="#999999" stroke-linecap="round" stroke-linejoin="round"/>
<path d="M0.5 10.5C0.5 9.46447 1.33947 8.625 2.375 8.625H4.25C5.28553 8.625 6.125 9.46447 6.125 10.5V12.375C6.125 13.4105 5.28553 14.25 4.25 14.25H2.375C1.33947 14.25 0.5 13.4105 0.5 12.375V10.5Z" stroke="#999999" stroke-linecap="round" stroke-linejoin="round"/>
<path d="M8.625 2.375C8.625 1.33947 9.46447 0.5 10.5 0.5H12.375C13.4105 0.5 14.25 1.33947 14.25 2.375V4.25C14.25 5.28553 13.4105 6.125 12.375 6.125H10.5C9.46447 6.125 8.625 5.28553 8.625 4.25V2.375Z" stroke="#999999" stroke-linecap="round" stroke-linejoin="round"/>
<path d="M8.625 10.5C8.625 9.46447 9.46447 8.625 10.5 8.625H12.375C13.4105 8.625 14.25 9.46447 14.25 10.5V12.375C14.25 13.4105 13.4105 14.25 12.375 14.25H10.5C9.46447 14.25 8.625 13.4105 8.625 12.375V10.5Z" stroke="#999999" stroke-linecap="round" stroke-linejoin="round"/>
</svg>
