<svg width="25" height="23" viewBox="0 0 25 23" fill="none" xmlns="http://www.w3.org/2000/svg">
<path d="M6.113 10.625C7.05374 10.625 7.90256 10.1049 8.48311 9.36461C9.38514 8.21448 10.522 7.25729 11.8215 6.56525C12.664 6.11657 13.395 5.45 13.7495 4.56374C13.9976 3.94361 14.125 3.28184 14.125 2.61394V1.875C14.125 1.39175 14.5168 1 15 1C16.4497 1 17.625 2.17525 17.625 3.625C17.625 4.96857 17.3222 6.24141 16.7811 7.37899C16.4712 8.03038 16.9059 8.875 17.6272 8.875M17.6272 8.875H21.274C22.4718 8.875 23.5439 9.68466 23.6707 10.8757C23.7231 11.3683 23.75 11.8685 23.75 12.375C23.75 15.6972 22.5928 18.7492 20.6595 21.1498C20.2073 21.7113 19.5082 22 18.7873 22H14.102C13.5377 22 12.9771 21.909 12.4418 21.7306L8.80824 20.5194C8.27291 20.341 7.71232 20.25 7.14804 20.25H5.26324M17.6272 8.875H15M5.26324 20.25C5.35985 20.4887 5.46499 20.723 5.57827 20.9526C5.80826 21.4187 5.48723 22 4.96745 22H3.90837C2.87154 22 1.9099 21.3956 1.60732 20.404C1.21243 19.1097 1 17.7359 1 16.3125C1 14.5013 1.34394 12.7704 1.97007 11.1816C2.32597 10.2785 3.23689 9.75 4.20758 9.75H5.4358C5.98638 9.75 6.30519 10.3986 6.01935 10.8691C5.0552 12.4564 4.5 14.3196 4.5 16.3125C4.5 17.7049 4.77104 19.0341 5.26324 20.25Z" stroke="white" stroke-width="2" stroke-linecap="round" stroke-linejoin="round"/>
</svg>
