<svg width="25" height="23" viewBox="0 0 25 23" fill="none" xmlns="http://www.w3.org/2000/svg">
<path d="M20.6747 3.71659C24.7752 7.81709 24.7752 14.4653 20.6747 18.5658M17.5814 6.81028C19.9734 9.20224 19.9734 13.0804 17.5814 15.4723M6.25 6.76627L11.7563 1.25999C12.3075 0.708769 13.25 1.09917 13.25 1.87871V20.4038C13.25 21.1834 12.3075 21.5738 11.7563 21.0226L6.25 15.5163H3.63556C2.60966 15.5163 1.64856 14.9254 1.3761 13.9363C1.13095 13.0464 1 12.1091 1 11.1413C1 10.1734 1.13095 9.23615 1.3761 8.34622C1.64856 7.35716 2.60966 6.76627 3.63556 6.76627H6.25Z" stroke="white" stroke-width="2" stroke-linecap="round" stroke-linejoin="round"/>
</svg>
