<svg width="14" height="14" viewBox="0 0 14 14" fill="none" xmlns="http://www.w3.org/2000/svg">
<path fill-rule="evenodd" clip-rule="evenodd" d="M0.21967 0.21967C0.512563 -0.0732233 0.987437 -0.0732233 1.28033 0.21967L6.75 5.68934L12.2197 0.219671C12.5126 -0.0732225 12.9874 -0.0732225 13.2803 0.219671C13.5732 0.512564 13.5732 0.987438 13.2803 1.28033L7.81066 6.75L13.2803 12.2197C13.5732 12.5126 13.5732 12.9874 13.2803 13.2803C12.9874 13.5732 12.5126 13.5732 12.2197 13.2803L6.75 7.81066L1.28033 13.2803C0.987437 13.5732 0.512563 13.5732 0.21967 13.2803C-0.0732232 12.9874 -0.0732232 12.5126 0.21967 12.2197L5.68934 6.75L0.21967 1.28033C-0.0732233 0.987437 -0.0732233 0.512563 0.21967 0.21967Z" fill="white"/>
</svg>
